<?xml version="1.0" encoding="utf-8"?>
<!-- Generated by IcoMoon.io -->
<!DOCTYPE svg PUBLIC "-//W3C//DTD SVG 1.1//EN" "http://www.w3.org/Graphics/SVG/1.1/DTD/svg11.dtd">
<svg version="1.1" xmlns="http://www.w3.org/2000/svg" xmlns:xlink="http://www.w3.org/1999/xlink" width="48" height="48" viewBox="0 0 48 48">
<g id="icomoon-ignore">
	<line stroke-width="1" x1="" y1="" x2="" y2="" stroke="#449FDB" opacity=""></line>
</g>
	<path d="M45 13.5l-10.5-10.5 3-3 10.5 10.5zM42 16.5l-1.5 16.5c-13.5 0-33 15-33 15l-2.49-2.49 12.828-12.828c0.514 0.205 1.075 0.318 1.662 0.318 2.485 0 4.5-2.015 4.5-4.5s-2.015-4.5-4.5-4.5c-2.485 0-4.5 2.015-4.5 4.5 0 0.587 0.114 1.148 0.318 1.662l-12.828 12.828-2.49-2.49c0 0 15-19.5 15-33l16.5-1.5 10.5 10.5z" fill="#000000"></path>
</svg>
