<?xml version="1.0" encoding="utf-8"?>
<!-- Generated by IcoMoon.io -->
<!DOCTYPE svg PUBLIC "-//W3C//DTD SVG 1.1//EN" "http://www.w3.org/Graphics/SVG/1.1/DTD/svg11.dtd">
<svg version="1.1" xmlns="http://www.w3.org/2000/svg" xmlns:xlink="http://www.w3.org/1999/xlink" width="48" height="48" viewBox="0 0 48 48">
<g id="icomoon-ignore">
	<line stroke-width="1" x1="" y1="" x2="" y2="" stroke="#449FDB" opacity=""></line>
</g>
	<path d="M18 27.5c0 0 9.56-5.736 14.942-3.47 1.116-1.7 2.215-3.531 3.291-5.401-5.265-1.29-12.233-0.129-12.233-0.129s8.916-5.349 14.375-3.675c1.095-1.974 2.159-3.921 3.185-5.733-4.349-0.294-8.56 0.408-8.56 0.408s5.585-3.351 10.621-3.919c1.584-2.572 3.055-4.588 4.379-5.581-26.297 0-42 30-48 48h3l9-15c0 0 3 3 12 0 2.132-0.711 4.263-2.684 6.355-5.341-5.279-1.338-12.355-0.159-12.355-0.159z" fill="#000000"></path>
</svg>
